<?xml version="1.0" standalone="no"?>
<!DOCTYPE svg PUBLIC "-//W3C//DTD SVG 20010904//EN"
 "http://www.w3.org/TR/2001/REC-SVG-20010904/DTD/svg10.dtd">
<svg version="1.0" xmlns="http://www.w3.org/2000/svg"
 width="1280.000000pt" height="640.000000pt" viewBox="0 0 1280.000000 640.000000"
 preserveAspectRatio="xMidYMid meet">
<metadata>
Created by potrace 1.15, written by Peter Selinger 2001-2017
</metadata>
<g transform="translate(0.000000,640.000000) scale(0.100000,-0.100000)"
fill="#8A3324" stroke="none">
<path d="M5915 5294 c-237 -23 -366 -45 -464 -79 -387 -131 -1505 -749 -2486
-1373 -594 -378 -980 -584 -1437 -767 l-161 -65 -50 15 c-178 53 -402 9 -510
-100 -110 -110 -96 -190 46 -260 133 -65 206 -79 427 -79 195 -1 287 10 325
38 17 12 16 15 -10 60 -15 26 -26 49 -23 51 2 2 62 -18 133 -46 249 -95 702
-226 1018 -294 62 -14 77 -20 72 -32 -3 -9 -10 -35 -16 -59 -10 -39 -9 -49 12
-91 18 -36 37 -56 79 -81 74 -44 109 -53 220 -59 80 -4 105 -2 160 17 71 24
99 41 183 112 47 41 62 49 85 44 115 -25 728 -93 1042 -117 85 -6 156 -12 158
-14 1 -1 -2 -14 -8 -29 -57 -151 95 -328 335 -392 96 -25 327 -26 444 -1 46
10 85 16 87 14 2 -2 -5 -21 -16 -42 -11 -22 -20 -50 -20 -64 0 -38 66 -94 142
-118 146 -49 406 -78 626 -71 133 5 169 10 238 32 265 85 269 316 8 486 -147
97 -371 145 -516 111 -21 -5 -38 -5 -38 -1 0 5 -2 15 -5 23 -5 12 53 15 382
20 371 7 941 29 1087 43 l68 7 -8 -34 c-30 -121 18 -161 189 -161 166 1 291
53 425 178 61 56 87 74 109 74 15 0 92 7 171 17 78 9 144 14 147 11 3 -3 -14
-45 -37 -94 -48 -102 -59 -175 -35 -223 l15 -30 -45 -15 c-107 -37 -204 -123
-249 -221 -22 -48 -24 -60 -14 -89 21 -64 94 -107 260 -150 253 -67 497 -51
621 39 59 42 92 108 97 193 l4 62 92 0 c84 1 280 20 351 35 30 6 30 6 32 -40
4 -105 82 -132 453 -155 217 -14 538 -14 605 -1 122 24 225 84 261 152 26 52
36 133 24 201 -31 168 -161 323 -356 421 -249 125 -471 86 -729 -130 l-76 -64
-21 28 c-12 15 -68 75 -125 132 -56 58 -102 105 -100 106 1 0 112 22 247 49
135 27 347 74 473 105 226 57 227 57 241 36 54 -83 372 -155 532 -122 209 45
295 170 235 344 l-18 52 53 21 c49 20 54 20 77 6 42 -28 292 -78 398 -80 89
-1 98 1 138 27 43 29 71 76 71 119 0 39 -47 125 -94 176 -72 77 -186 122 -309
122 -82 0 -139 -43 -194 -147 l-27 -52 -151 79 c-82 43 -305 150 -495 238
-1000 461 -1808 867 -2550 1280 -362 202 -586 312 -820 405 -323 128 -595 200
-915 242 -114 15 -485 28 -570 19z"/>
<path d="M12485 3001 c-66 -16 -121 -69 -161 -155 -47 -101 -23 -177 71 -225
100 -52 215 -24 318 75 88 84 104 131 68 191 -42 67 -214 133 -296 114z"/>
<path d="M310 2760 c-190 -39 -295 -116 -307 -223 -7 -57 9 -84 60 -108 82
-37 316 -16 493 45 176 60 213 109 134 179 -97 88 -257 133 -380 107z"/>
<path d="M11891 2505 c-140 -40 -263 -129 -277 -201 -5 -30 -2 -47 16 -80 39
-74 181 -170 310 -208 131 -40 344 -57 425 -35 87 24 186 171 186 275 0 108
-75 173 -268 230 -112 33 -307 43 -392 19z"/>
<path d="M810 2453 c-151 -23 -290 -102 -290 -163 0 -40 60 -88 157 -127 106
-43 147 -53 221 -53 73 0 121 19 157 62 66 78 48 169 -47 232 -44 30 -140 61
-167 55 -3 -1 -17 -3 -31 -6z"/>
<path d="M2099 2311 c-123 -27 -172 -57 -198 -120 -17 -40 -8 -72 30 -111 69
-69 163 -96 232 -66 70 29 167 170 167 242 0 68 -82 87 -231 55z"/>
<path d="M2329 1891 c-48 -39 -19 -173 49 -217 60 -41 206 -42 271 -3 64 39
43 142 -39 188 -84 47 -240 65 -281 32z"/>
<path d="M11475 1886 c-132 -42 -246 -141 -231 -201 13 -51 134 -106 275 -125
161 -22 311 40 357 148 13 28 12 36 -1 62 -33 65 -182 130 -293 129 -37 0 -85
-6 -107 -13z"/>
<path d="M4594 1601 c-107 -17 -229 -68 -277 -116 -41 -42 -37 -84 13 -128
110 -100 281 -133 435 -85 92 29 211 110 238 161 20 38 20 39 0 65 -55 75
-259 126 -409 103z"/>
<path d="M7597 1386 c-100 -42 -205 -119 -233 -171 -18 -35 -18 -35 3 -56 48
-49 305 -66 446 -30 83 22 178 63 197 86 20 24 15 64 -11 91 -13 14 -57 42
-98 62 -66 33 -85 37 -160 40 -72 2 -95 -1 -144 -22z"/>
</g>
</svg>
