<?xml version="1.0" standalone="no"?>
<!DOCTYPE svg PUBLIC "-//W3C//DTD SVG 20010904//EN"
 "http://www.w3.org/TR/2001/REC-SVG-20010904/DTD/svg10.dtd">
<svg version="1.0" xmlns="http://www.w3.org/2000/svg"
 width="1280.000000pt" height="1280.000000pt" viewBox="0 0 1280.000000 1280.000000"
 preserveAspectRatio="xMidYMid meet">
<metadata>
Created by potrace 1.15, written by Peter Selinger 2001-2017
</metadata>
<g transform="translate(0.000000,1280.000000) scale(0.100000,-0.100000)"
fill="#ffffff" stroke="none">
<path d="M5583 11980 c-302 -80 -742 -259 -1026 -418 -252 -142 -403 -258
-593 -454 -100 -104 -112 -120 -116 -157 -4 -48 -1 -56 28 -65 24 -7 84 35 84
59 0 21 38 62 161 174 127 116 256 207 420 296 57 32 145 81 194 110 199 117
663 309 919 381 50 14 105 33 122 43 16 10 47 21 67 25 48 9 47 22 0 24 -21 1
-63 4 -93 6 -41 4 -83 -2 -167 -24z"/>
<path d="M5905 11473 c-199 -19 -524 -105 -775 -205 -319 -127 -544 -268 -807
-506 -136 -123 -189 -221 -126 -230 17 -3 46 21 125 103 160 166 276 254 485
368 222 122 430 202 698 268 151 38 463 136 507 160 17 9 18 13 7 25 -17 16
-59 23 -114 17z"/>
<path d="M6190 11034 c-407 -44 -853 -169 -1110 -311 -284 -158 -556 -414
-670 -631 -14 -27 -32 -59 -41 -73 -9 -13 -21 -41 -28 -61 -7 -20 -30 -64 -52
-98 -21 -33 -39 -65 -39 -70 0 -8 -31 -80 -60 -141 -20 -41 -50 -174 -59 -264
-12 -117 -31 -359 -34 -429 l-2 -48 -146 -57 c-260 -102 -471 -213 -622 -328
-231 -175 -439 -419 -557 -652 -35 -71 -41 -77 -86 -93 -68 -24 -248 -162
-349 -266 -5 -6 -62 -62 -126 -124 -105 -102 -123 -125 -186 -238 -38 -69 -79
-150 -91 -180 -21 -53 -115 -359 -132 -430 -5 -19 -20 -73 -33 -120 -14 -47
-33 -123 -42 -170 -9 -47 -23 -111 -30 -143 -32 -142 -45 -854 -17 -962 6 -22
18 -121 27 -220 15 -166 51 -448 76 -605 6 -36 14 -90 18 -120 17 -126 64
-367 77 -397 8 -17 14 -37 14 -44 0 -27 161 -490 217 -624 66 -159 129 -270
214 -377 32 -40 99 -127 150 -193 152 -198 394 -422 524 -485 61 -29 269 -44
525 -37 303 9 546 44 695 101 69 26 250 119 304 155 83 56 281 176 354 213 34
17 99 53 144 79 l82 48 4 -142 c4 -157 22 -261 68 -399 63 -192 174 -322 359
-421 51 -27 103 -42 240 -70 539 -110 990 -177 1600 -236 58 -6 231 -17 385
-26 465 -25 594 -35 740 -55 197 -26 233 -29 475 -40 118 -5 275 -14 348 -20
l132 -10 68 35 c39 20 83 35 102 35 44 0 107 31 157 78 73 68 137 305 118 435
-7 43 -6 44 23 50 16 3 128 11 248 17 234 11 450 31 604 56 146 23 461 94 484
109 12 8 50 22 86 31 36 9 78 23 94 31 16 8 52 22 80 30 116 35 289 137 363
216 85 90 124 193 123 327 -1 208 -102 341 -383 508 -211 125 -285 149 -529
177 -296 33 -637 89 -648 106 -3 5 -3 37 1 71 6 63 -1 126 -28 228 -34 133
-55 238 -77 390 -8 52 -19 114 -25 136 -6 23 -15 62 -20 85 -42 203 -62 257
-175 479 -38 74 -82 162 -98 195 -15 33 -37 78 -49 100 -64 119 -104 209 -136
304 -19 58 -53 144 -74 190 -21 46 -39 87 -39 92 0 4 -43 95 -95 201 -52 105
-95 202 -95 213 0 12 -10 30 -21 41 -12 10 -36 42 -55 71 -42 66 -312 338
-424 427 -108 86 -338 239 -455 303 -207 114 -378 182 -600 238 -93 24 -190
51 -215 60 -139 50 -324 84 -452 85 -79 0 -193 -20 -265 -48 l-53 -20 0 111
c0 92 -4 118 -21 154 -15 30 -24 76 -29 147 -11 132 -16 164 -45 256 -12 41
-26 91 -29 111 -8 43 -88 178 -157 265 -63 80 -199 207 -255 240 -55 32 -214
87 -319 110 -120 27 -375 24 -515 -5 -127 -27 -286 -79 -372 -122 -239 -119
-508 -339 -698 -569 -176 -214 -703 -756 -784 -807 -22 -14 -60 -45 -85 -68
-47 -44 -146 -106 -231 -145 -8 -4 -17 -16 -19 -26 -2 -10 -12 -25 -22 -32
-39 -27 -11 -62 51 -62 33 0 249 126 335 194 22 18 69 50 104 71 36 21 103 71
150 111 94 79 300 284 353 351 18 23 69 82 112 130 43 48 132 153 196 233 203
251 346 375 549 475 213 106 376 140 625 132 180 -5 278 -26 445 -93 109 -43
194 -116 300 -257 81 -109 80 -106 124 -227 74 -202 90 -278 91 -460 1 -158 0
-168 -27 -236 -15 -39 -43 -95 -62 -125 -19 -30 -43 -67 -52 -83 -10 -16 -47
-63 -83 -105 -36 -42 -85 -101 -110 -130 -25 -30 -67 -78 -94 -105 -26 -28
-81 -92 -121 -142 -71 -87 -108 -124 -209 -209 -27 -22 -71 -60 -99 -84 -28
-24 -81 -64 -117 -88 -36 -24 -90 -64 -120 -89 -127 -103 -421 -298 -670 -442
-565 -327 -976 -456 -1397 -439 -71 3 -144 10 -163 16 -84 26 -217 163 -283
292 -44 84 -67 118 -123 182 -24 26 -68 97 -99 158 -54 106 -71 149 -116 289
-12 36 -28 78 -36 93 -7 15 -18 56 -23 90 -13 94 -58 332 -79 422 -50 210 -53
531 -7 726 62 266 204 528 386 711 56 56 86 76 193 127 69 34 161 88 204 120
43 32 125 86 182 121 122 73 370 194 380 185 3 -4 15 -109 27 -233 12 -125 29
-253 38 -284 9 -32 23 -84 32 -115 22 -79 122 -251 156 -269 37 -19 51 -18 77
10 l22 23 -36 54 c-19 29 -35 64 -35 77 0 13 -10 42 -21 65 -12 23 -25 58 -29
77 -4 19 -17 69 -28 111 -27 98 -42 220 -51 427 -5 108 -4 175 3 190 7 17 6
26 -3 31 -10 7 -12 32 -7 107 4 55 6 115 6 134 0 54 29 246 50 330 10 41 22
97 26 124 9 67 77 257 111 314 15 26 39 68 53 93 83 155 283 376 435 481 176
122 441 247 649 307 128 36 333 77 466 91 307 34 375 39 472 40 146 0 297 -18
388 -46 41 -13 149 -46 240 -74 160 -50 269 -92 300 -116 8 -6 26 -14 40 -17
73 -18 304 -265 368 -393 44 -90 66 -152 82 -239 6 -33 16 -75 21 -93 6 -18 9
-70 8 -115 -1 -45 1 -125 5 -177 4 -57 3 -113 -3 -140 -6 -25 -15 -68 -22 -96
l-11 -52 -51 -6 c-70 -10 -148 -39 -202 -75 -25 -17 -49 -31 -52 -31 -3 0 -27
-13 -52 -28 -25 -16 -77 -39 -116 -52 -102 -33 -174 -72 -234 -126 -53 -48
-132 -158 -146 -204 -4 -14 -22 -56 -40 -95 -46 -96 -107 -316 -136 -485 -7
-36 -11 -103 -10 -150 2 -79 4 -86 29 -110 15 -14 48 -72 72 -128 36 -83 61
-123 126 -200 79 -94 172 -178 244 -220 19 -12 78 -37 130 -57 52 -20 118 -47
145 -61 92 -44 170 -59 304 -58 l124 0 89 -83 c110 -103 145 -115 162 -57 9
28 -110 152 -184 192 -30 16 -74 40 -96 53 -39 22 -45 22 -92 10 -47 -12 -59
-10 -167 19 -123 33 -289 94 -316 117 -8 7 -19 13 -23 13 -4 0 -33 18 -65 39
-59 40 -241 226 -241 245 0 6 -17 41 -39 77 -42 72 -52 101 -57 168 -2 25 -11
53 -20 62 -29 32 -14 162 35 309 58 175 157 324 333 502 85 87 133 128 148
128 12 0 55 27 96 60 62 49 90 64 172 90 79 26 107 30 149 25 31 -4 54 -2 58
4 6 11 73 8 196 -9 74 -11 197 -58 246 -95 18 -14 64 -39 103 -54 39 -16 86
-41 105 -55 18 -14 39 -26 46 -26 7 0 24 -10 38 -23 15 -13 51 -31 81 -42 30
-10 66 -26 80 -35 14 -9 54 -31 89 -50 36 -18 80 -44 99 -57 19 -12 39 -23 44
-23 6 0 35 -18 67 -40 31 -22 61 -40 67 -40 15 0 142 -104 226 -186 42 -41 92
-100 109 -132 55 -96 103 -163 183 -252 88 -97 124 -163 133 -241 5 -44 14
-62 45 -98 61 -70 134 -251 174 -433 46 -205 106 -544 116 -653 13 -135 11
-384 -4 -485 -6 -41 -10 -88 -9 -104 3 -48 -59 -252 -109 -361 -16 -33 -34
-75 -41 -94 -7 -19 -27 -54 -45 -77 -18 -23 -40 -57 -50 -76 -9 -18 -28 -47
-40 -64 -30 -39 -30 -55 -1 -82 45 -42 90 -21 142 67 17 28 34 49 39 48 9 -3
86 136 86 155 0 9 39 102 81 195 10 24 19 48 19 55 0 7 6 30 14 53 92 261 121
507 91 765 -9 74 -17 160 -19 190 -6 86 -33 341 -41 385 -9 51 -22 95 -50 170
-13 33 -26 68 -29 77 -6 20 -114 184 -157 239 -15 20 -49 87 -75 150 -85 208
-95 224 -283 459 -46 58 -111 133 -145 168 -86 90 -282 246 -339 271 -27 11
-65 33 -85 49 -53 41 -449 252 -567 302 -55 23 -107 48 -115 55 -23 20 -265
133 -308 144 -20 5 -61 12 -90 16 -52 7 -53 8 -45 34 11 38 8 255 -6 331 -6
36 -16 108 -21 160 -17 181 -77 375 -145 465 -12 17 -24 35 -26 42 -8 23 -162
185 -245 257 -45 39 -101 81 -125 93 -125 62 -158 75 -270 108 -67 20 -136 43
-153 50 -17 7 -89 28 -161 46 l-130 33 -285 2 c-157 1 -301 0 -320 -2z m-3546
-3524 c-8 -41 -19 -97 -24 -125 -21 -111 -21 -275 -1 -428 11 -81 23 -153 27
-160 5 -8 4 -9 -4 -2 -5 6 -12 19 -15 30 -10 42 -5 -42 8 -140 14 -100 46
-249 65 -299 5 -15 10 -41 10 -58 0 -18 4 -45 9 -62 5 -17 15 -51 22 -76 17
-62 61 -166 120 -285 27 -55 49 -107 49 -116 0 -9 13 -45 29 -80 16 -35 48
-109 71 -164 55 -130 83 -177 142 -236 49 -49 174 -129 201 -129 8 0 35 -11
58 -25 72 -41 108 -50 122 -30 12 15 24 15 138 4 204 -20 452 10 673 82 118
39 396 161 691 305 156 75 447 270 775 518 102 77 221 167 265 200 44 33 104
82 133 108 30 26 57 48 62 48 5 0 29 27 54 61 95 126 276 332 284 324 3 -3 17
5 31 19 40 36 146 44 203 15 80 -40 146 -98 200 -176 65 -93 65 -94 122 -298
56 -204 82 -318 96 -425 6 -47 16 -110 22 -140 5 -30 12 -102 14 -160 2 -58 8
-121 14 -140 5 -19 12 -127 15 -240 3 -113 10 -299 15 -415 6 -115 13 -302 16
-415 7 -290 21 -368 87 -520 8 -19 27 -69 43 -110 15 -41 42 -107 61 -146 18
-40 33 -76 33 -82 0 -15 71 -164 92 -191 10 -13 18 -32 18 -41 0 -10 7 -23 16
-30 8 -8 50 -59 93 -115 88 -114 161 -183 270 -257 206 -140 582 -267 1071
-362 149 -28 219 -54 300 -108 142 -94 223 -203 264 -353 15 -55 34 -118 43
-141 10 -28 15 -83 16 -170 1 -116 -1 -137 -26 -209 -41 -120 -78 -152 -140
-124 -21 9 -31 7 -64 -15 -101 -67 -462 -60 -758 14 -177 45 -319 56 -463 39
-64 -8 -198 -14 -297 -13 -199 1 -334 20 -525 74 -58 17 -148 34 -200 39 -83
7 -100 6 -132 -11 -57 -28 -127 -24 -171 10 -34 27 -42 29 -208 41 -96 6 -255
16 -354 21 -407 22 -552 48 -705 125 -151 76 -205 135 -306 331 -82 161 -86
178 -119 544 -28 321 -35 734 -27 1660 2 206 0 384 -4 395 -20 55 -75 73 -108
36 -15 -17 -16 -42 -10 -277 6 -222 -6 -824 -21 -1029 -2 -33 -7 -190 -11
-350 -4 -194 -10 -294 -18 -302 -6 -6 -51 -27 -99 -47 -181 -74 -390 -191
-557 -309 -112 -79 -200 -119 -345 -156 -255 -64 -545 -101 -793 -101 -173 0
-199 7 -304 77 -178 118 -324 263 -449 445 -35 51 -85 120 -112 153 -48 59
-257 467 -257 502 0 9 -13 46 -29 82 -67 153 -82 193 -116 311 -73 253 -140
639 -180 1030 -38 363 -35 917 5 1265 51 441 140 722 323 1017 115 185 167
257 256 357 58 66 208 197 216 189 2 -2 -3 -37 -11 -78z m5090 -330 c138 -24
549 -164 685 -232 144 -72 483 -304 546 -374 11 -12 41 -36 66 -53 44 -29 210
-199 313 -320 41 -49 100 -157 199 -371 19 -41 58 -123 85 -181 27 -59 64
-151 82 -205 31 -94 105 -278 121 -299 6 -8 126 -247 251 -499 30 -60 50 -123
74 -236 8 -36 19 -76 24 -89 6 -13 19 -87 30 -165 10 -77 24 -157 30 -176 5
-19 10 -51 10 -71 0 -34 12 -85 43 -179 14 -44 27 -129 30 -197 2 -28 8 -57
14 -65 6 -7 13 -26 16 -43 9 -47 28 -118 38 -137 5 -10 9 -50 9 -89 0 -78 11
-109 39 -109 25 0 30 25 32 153 1 59 5 107 9 107 4 0 58 -13 121 -30 146 -37
255 -56 451 -75 86 -9 190 -24 230 -34 95 -25 240 -80 233 -90 -2 -4 10 -22
28 -38 56 -54 88 -96 131 -178 77 -145 83 -267 19 -376 -30 -52 -45 -65 -126
-113 -259 -153 -691 -295 -1108 -366 -98 -16 -413 -52 -553 -62 l-39 -3 -29
108 c-20 76 -44 135 -79 198 -28 49 -55 89 -60 89 -4 0 -22 20 -39 44 -33 45
-138 119 -222 155 -26 11 -133 42 -240 70 -326 84 -757 210 -843 246 -183 76
-345 194 -461 339 -89 110 -202 344 -329 681 -44 115 -51 141 -39 148 8 4 19
5 26 1 8 -5 9 0 4 17 -19 65 -58 286 -72 403 -12 105 -15 237 -13 656 2 530
-1 591 -37 810 -41 245 -82 381 -145 483 -18 29 -55 95 -82 147 -64 122 -96
167 -147 214 -39 35 -136 86 -230 121 -34 13 -34 14 -7 14 30 1 45 28 101 183
l28 77 62 10 c34 5 179 8 331 6 222 -2 291 -7 389 -25z m4154 -4544 c-5 -79
-42 -158 -99 -211 l-31 -30 31 45 c41 60 71 148 78 233 8 95 27 61 21 -37z"/>
<path d="M8685 10424 c-29 -9 -45 -24 -45 -45 0 -27 16 -32 125 -40 178 -13
240 -22 247 -35 5 -7 44 -15 105 -19 309 -21 851 -287 1098 -540 39 -39 93
-105 121 -146 55 -78 134 -228 134 -251 0 -8 13 -27 29 -42 52 -50 97 -7 73
70 -15 51 0 34 79 -84 39 -59 81 -110 92 -115 31 -12 67 17 67 54 0 99 -490
670 -720 839 -206 152 -554 285 -875 335 -100 15 -492 29 -530 19z"/>
<path d="M6658 10350 c-55 -30 -116 -91 -123 -125 -4 -17 -19 -47 -33 -68 -31
-47 -52 -138 -52 -233 0 -121 4 -130 99 -225 69 -69 105 -95 175 -129 79 -40
96 -44 177 -48 94 -5 153 6 228 40 25 12 73 33 107 48 105 47 162 133 171 255
5 62 2 87 -21 160 -23 74 -35 95 -87 152 -77 85 -132 119 -249 156 -79 24
-117 30 -225 33 -116 4 -134 2 -167 -16z m242 -100 c41 -6 108 -20 148 -32 60
-17 83 -31 136 -79 53 -49 68 -70 90 -129 44 -119 28 -229 -40 -277 -54 -38
-134 -73 -201 -89 -77 -18 -217 -14 -257 8 -71 39 -156 104 -191 145 l-40 47
0 106 c0 94 3 111 29 167 31 68 52 91 111 122 44 23 96 26 215 11z"/>
<path d="M6878 9989 c-24 -13 -23 -61 0 -82 24 -22 55 -21 75 1 23 26 21 58
-5 76 -26 18 -46 20 -70 5z"/>
<path d="M5755 10161 c-110 -33 -123 -40 -207 -107 -60 -49 -139 -144 -119
-144 5 0 14 7 21 15 7 9 15 13 18 10 3 -3 -2 -13 -10 -22 -19 -22 -38 -78 -38
-111 0 -14 -5 -40 -12 -58 -10 -29 -9 -40 11 -86 13 -29 27 -60 32 -68 5 -8
15 -29 23 -47 18 -39 93 -96 166 -124 70 -27 236 -37 319 -19 122 26 276 127
316 205 52 102 55 140 20 227 -29 71 -83 146 -174 242 -115 120 -196 139 -366
87z m133 -87 c87 -13 236 -141 285 -246 44 -92 44 -97 -8 -166 -54 -72 -143
-135 -223 -158 -63 -19 -209 -15 -276 7 -96 32 -183 155 -170 241 16 101 108
236 207 303 55 36 64 37 185 19z"/>
<path d="M5795 9838 c-38 -33 -29 -69 22 -93 51 -24 87 -6 91 46 3 40 -10 56
-55 65 -23 4 -36 0 -58 -18z"/>
<path d="M9030 9633 c-20 -8 -30 -24 -30 -50 0 -17 7 -24 28 -28 15 -3 61 -17
102 -31 41 -14 95 -31 120 -38 25 -7 60 -21 79 -31 19 -9 59 -26 89 -36 126
-43 309 -156 442 -271 88 -77 115 -83 139 -32 11 24 8 31 -30 80 -73 95 -166
162 -354 256 -135 68 -273 120 -402 152 -119 30 -163 37 -183 29z"/>
<path d="M2674 9276 c-178 -74 -321 -158 -540 -321 -391 -291 -767 -696 -960
-1036 -75 -133 -154 -316 -154 -360 0 -39 24 -69 56 -69 40 0 48 14 123 205
61 156 104 240 184 360 186 280 429 520 842 831 228 172 280 205 311 198 24
-4 38 3 79 36 28 23 55 54 62 68 6 15 34 40 62 57 56 32 60 39 33 54 -14 7
-39 1 -98 -23z"/>
<path d="M2964 9030 c-186 -98 -484 -384 -755 -726 -61 -76 -138 -172 -172
-212 -34 -40 -81 -101 -104 -136 -46 -68 -213 -373 -213 -388 0 -6 -20 -53
-45 -105 -25 -52 -45 -104 -45 -117 0 -30 29 -56 63 -56 36 0 57 31 113 163
26 62 53 121 60 132 8 11 14 27 14 35 0 19 110 206 189 324 195 288 528 660
859 958 128 116 151 148 111 156 -8 1 -42 -11 -75 -28z"/>
<path d="M11216 7971 c-16 -18 -15 -26 30 -165 38 -119 44 -149 34 -161 -24
-29 -15 -105 23 -191 76 -176 134 -394 157 -589 18 -159 10 -441 -16 -540 l-5
-20 17 20 c15 19 16 17 10 -45 -17 -160 -56 -312 -110 -430 -67 -142 -107
-268 -109 -340 -2 -50 0 -55 21 -58 42 -6 69 25 125 140 134 274 202 560 214
898 9 270 -20 504 -103 835 -64 254 -198 623 -237 650 -27 19 -30 19 -51 -4z"/>
<path d="M10783 7228 c-29 -14 -29 -33 -1 -185 17 -96 21 -159 22 -338 1 -146
-3 -233 -11 -260 -53 -176 -77 -280 -81 -355 -4 -86 -4 -86 23 -98 23 -11 31
-10 51 3 13 8 24 22 24 30 0 8 11 48 25 89 14 41 25 86 25 100 0 18 8 30 24
37 21 10 25 23 40 113 24 148 31 251 18 243 -7 -5 -10 37 -10 135 0 175 -6
229 -31 298 -10 29 -28 93 -36 133 -5 27 -38 68 -52 66 -5 0 -18 -5 -30 -11z"/>
<path d="M1354 5302 c-23 -15 -42 -71 -67 -197 -95 -466 -111 -841 -51 -1190
9 -49 20 -117 25 -150 5 -33 16 -81 25 -107 8 -25 26 -97 39 -160 17 -86 47
-173 121 -354 103 -253 122 -289 155 -299 28 -9 69 30 69 65 0 15 -22 74 -49
131 -132 279 -225 608 -273 959 -19 139 -22 212 -22 460 0 309 10 425 56 655
31 154 32 160 13 178 -18 19 -25 20 -41 9z"/>
<path d="M864 5192 c-21 -14 -60 -87 -78 -147 -10 -33 -27 -80 -37 -105 -25
-61 -49 -171 -49 -228 -1 -26 -9 -86 -19 -134 -10 -48 -14 -89 -9 -90 5 -2 9
-147 8 -343 -1 -442 20 -718 65 -865 12 -41 51 -178 85 -305 34 -126 66 -237
70 -246 5 -8 24 -24 44 -34 34 -19 36 -19 55 0 24 21 27 60 7 107 -23 58 -76
231 -86 284 -5 28 -25 100 -44 160 -32 103 -46 177 -48 269 0 22 -4 47 -9 55
-12 26 -24 415 -23 780 1 318 3 351 23 427 12 46 23 95 25 110 1 16 10 43 20
61 9 18 13 38 9 45 -11 18 -4 64 18 129 11 32 17 62 14 68 -7 12 -25 13 -41 2z"/>
</g>
</svg>
